<svg xmlns="http://www.w3.org/2000/svg" xmlns:xlink="http://www.w3.org/1999/xlink" width="400" height="124" viewBox="0 0 400 124"><defs><path id="a" d="M2.133 2.45a5.291 5.291 0 0 0 0 7.484l13.099 13.102L2.149 36.119a5.289 5.289 0 0 0 0 7.482 5.295 5.295 0 0 0 7.484 0l16.826-16.826a5.273 5.273 0 0 0 1.549-3.739 5.286 5.286 0 0 0-1.549-3.747L9.617 2.45A5.28 5.28 0 0 0 5.874.898 5.272 5.272 0 0 0 2.133 2.45"/><linearGradient id="b" x1="-24.8%" x2="64.37%" y1="22.652%" y2="77.916%"><stop offset="0%" stop-color="#09F"/><stop offset="100%" stop-color="#039"/></linearGradient><path id="d" d="M18.642 2.483L1.817 19.31a5.271 5.271 0 0 0-1.55 3.74c0 1.355.518 2.71 1.55 3.743l16.842 16.842a5.291 5.291 0 0 0 7.484-7.482L13.045 23.05 26.126 9.969a5.296 5.296 0 0 0 0-7.486A5.272 5.272 0 0 0 22.385.934a5.28 5.28 0 0 0-3.743 1.549"/><linearGradient id="e" x1="44.225%" x2="129.984%" y1="27.406%" y2="80.555%"><stop offset="0%" stop-color="#EF3C24"/><stop offset="100%" stop-color="#F8991D"/></linearGradient></defs><g fill="none" fill-rule="evenodd"><path d="M30.498 39.482h-5.946c-8.143 0-12.704 1.873-12.704 7.575 0 4.885 3.665 7.33 8.958 7.33 4.561 0 8.634-.895 9.692-1.303V39.482zM19.91 60.822C7.286 60.821.445 56.26.445 47.218c0-9.12 9.366-13.6 20.361-13.6h9.692V31.01c0-4.478-3.258-7.084-11.729-7.084-5.539 0-13.03 2.606-14.903 3.34v-7.005c1.63-.409 9.448-3.098 18-3.098 13.683 0 19.79 3.992 19.79 14.336v26.55c-2.036.816-9.693 2.771-21.746 2.771zm157.281 16.45h11.401V18.389h-11.401zm-57.717-52.859c-4.235 0-8.877 1.388-10.017 1.631v33.798H98.055V20.504c1.872-.732 11.32-3.34 19.79-3.34 1.141 0 5.133.162 6.109.488v7.251c-.734-.162-3.502-.49-4.48-.49m29.079-.732c-5.699 0-8.878 3.829-9.04 11.322h18.161c-.16-6.762-3.257-11.322-9.12-11.322zm-9.04 17.348c.162 8.634 3.907 12.949 13.52 12.949 5.944 0 11.972-2.525 13.52-3.666v7.333c-1.629.975-8.634 3.176-17.51 3.176-16.126 0-20.932-8.065-20.932-22.886 0-13.356 7.817-20.771 20.442-20.771 12.624 0 20.117 7.74 20.117 20.771v3.094h-29.157zm-77.78 4.018a8.195 8.195 0 0 1-2.412-5.827c0-2.2.857-4.269 2.412-5.825l1.92-1.92V.958h-11.4v58.884h11.4V46.968l-1.92-1.92z" fill="#FFF"/><g transform="translate(191 16.17)"><mask id="c" fill="#fff"><use xlink:href="#a"/></mask><path fill="url(#b)" d="M2.133 2.45a5.291 5.291 0 0 0 0 7.484l13.099 13.102L2.149 36.119a5.289 5.289 0 0 0 0 7.482 5.295 5.295 0 0 0 7.484 0l16.826-16.826a5.273 5.273 0 0 0 1.549-3.739 5.286 5.286 0 0 0-1.549-3.747L9.617 2.45A5.28 5.28 0 0 0 5.874.898 5.272 5.272 0 0 0 2.133 2.45" mask="url(#c)"/></g><path fill="#09F" d="M206.232 39.206l-4.884 4.879-8.2 8.204a5.252 5.252 0 0 0-1.55 3.737 5.27 5.27 0 0 0 1.55 3.745 5.28 5.28 0 0 0 3.74 1.549 5.288 5.288 0 0 0 3.745-1.55l10.072-10.072 6.754-6.754a5.274 5.274 0 0 0 1.159-1.748 5.276 5.276 0 0 0 0-3.985 5.33 5.33 0 0 0-1.16-1.752l-7.471-7.451a5.278 5.278 0 0 1 1.55 3.742 5.277 5.277 0 0 1-1.55 3.74l-3.755 3.716z"/><g transform="translate(62 16.17)"><mask id="f" fill="#fff"><use xlink:href="#d"/></mask><path fill="url(#e)" d="M18.642 2.483L1.817 19.31a5.271 5.271 0 0 0-1.55 3.74c0 1.355.518 2.71 1.55 3.743l16.842 16.842a5.291 5.291 0 0 0 7.484-7.482L13.045 23.05 26.126 9.969a5.296 5.296 0 0 0 0-7.486A5.272 5.272 0 0 0 22.385.934a5.28 5.28 0 0 0-3.743 1.549" mask="url(#f)"/></g><path fill="#F8991D" d="M75.044 39.22l4.881-4.88 8.201-8.202a5.274 5.274 0 0 0 1.55-3.74c0-1.356-.516-2.71-1.55-3.744a5.281 5.281 0 0 0-3.74-1.551 5.28 5.28 0 0 0-3.744 1.55L70.568 28.727l-6.752 6.755a5.254 5.254 0 0 0-1.16 1.748 5.318 5.318 0 0 0 0 3.983 5.27 5.27 0 0 0 1.16 1.752l7.471 7.456a5.294 5.294 0 0 1 0-7.488l3.757-3.712z"/><path fill="#FFF" d="M260.37 61.13c-14.194 0-19.495-7.584-19.495-22.919 0-15.092 8.647-20.803 19.659-20.803 8.156 0 13.214 2.45 14.194 3.182v7.342c-1.142-.736-5.793-3.182-10.36-3.182-7.261 0-11.666 3.67-11.666 13.542 0 11.583 4.325 15.58 11.666 15.58 4.16 0 9.788-2.367 10.767-3.345v7.424c-1.305.896-7.341 3.18-14.764 3.18m43.317-36.544c-7.342 0-10.196 4.08-10.196 13.624 0 11.826 3.099 15.824 10.196 15.824 7.016 0 10.114-4.24 10.114-15.824 0-9.708-3.017-13.624-10.114-13.624m0 36.543c-17.131 0-22.025-7.42-22.025-22.919 0-14.684 7.994-20.803 22.025-20.803 14.438 0 22.025 5.955 22.025 20.803 0 17.456-7.668 22.92-22.025 22.92m84.674-.978V35.028c0-6.85-2.121-10.278-8.24-10.278-4.323 0-7.83 1.142-8.89 1.633.408.896 1.224 3.67 1.224 5.465v28.305h-11.502V35.028c0-6.524-1.877-10.278-8.157-10.278-3.59 0-7.18 1.142-8.16 1.633v33.77h-11.42V20.836c1.634-.654 10.769-3.428 19.172-3.428 7.993 0 13.05 2.203 13.949 3.1 1.795-.897 7.832-3.1 15.826-3.1 12.969 0 17.7 6.448 17.7 13.705v29.04h-11.502zm-154.53-4.093a5.613 5.613 0 1 1-11.226 0 5.613 5.613 0 0 1 11.226 0"/><path stroke="#939598" d="M4.56 77.36h162.476m32.471 0h200.241"/><path fill="#939598" d="M17.761 108.436h-3.11c-4.223 0-6.703.926-6.703 3.777 0 2.259 1.851 3.555 4.666 3.555 2.518 0 4.666-.444 5.147-.666v-6.666zm-5.444 9.888c-5.332 0-8.22-2.111-8.22-6 0-4.555 4.554-6.221 9.257-6.221h4.407v-1.296c0-2.37-1.518-3.704-5.518-3.704-2.777 0-6.073 1.297-6.628 1.556V99.88c.63-.222 4.036-1.407 7.554-1.407 5.777 0 8.37 1.889 8.37 6.518v12.073c-.852.37-4 1.259-9.222 1.259zm28.29-.444l-8.592-9.963 7.962-8.999h4.777l-8.591 9 9.48 9.961h-5.036zm-12.48 0h3.852V91.103h-3.852v26.775zm22.104-.001h3.851V91.104h-3.851zm10.59 0h3.852V98.918h-3.852zm23.737.001v-11.556c0-3.48-1.26-5.036-4.556-5.036-2.11 0-4.073.593-4.74.852v15.74H71.41v-17.85c.964-.335 4.815-1.556 8.704-1.556 5.295 0 8.294 2 8.294 6.221v13.184h-3.85zm10.587-.001h3.852V98.918h-3.852zm29.437.445c-4 0-6.555-1-7.259-1.444v-2.89c1.26.853 4.148 1.668 6.333 1.668 3.407 0 4.74-1.223 4.74-2.741 0-1.26-1.259-2.036-2.85-2.666-3.89-1.52-8.26-2.445-8.26-6.333 0-3.518 3.296-5.444 7.518-5.444 3.778 0 6.481 1.149 6.851 1.408v2.814c-1-.556-3.407-1.518-5.999-1.518-3.333 0-4.48 1.148-4.48 2.444 0 1.185 1.295 1.889 2.887 2.518 3.148 1.259 8.332 2.445 8.332 6.185 0 3.666-2.554 5.999-7.813 5.999m21.328-17.258c-3.074 0-4.704 2-4.777 5.703h9.591c-.074-3.296-1.666-5.703-4.814-5.703zm-4.777 8.073c.073 4.296 1.814 6.519 6.184 6.519 2.593 0 5.703-1.15 6.221-1.667v2.888c-.444.333-3.258 1.445-7.406 1.445-6.777 0-8.851-3.52-8.851-10.406 0-6.148 3.222-9.444 8.629-9.444 5.295 0 8.554 3.407 8.554 9.444v1.22h-13.331zm28.327 8.741h-5.075l-6.702-18.962h4.073l5.26 16.258 5.22-16.258h3.89zm10.81 4.814h-2.852l3.333-7.89h3.926zm26.031-4.37c-6.148 0-8.407-3.185-8.407-10.406 0-6.592 3.26-9.444 8.444-9.444 3.481 0 5.63 1.075 6.147 1.445v2.888c-.889-.592-2.925-1.518-4.998-1.518-3.63 0-5.63 1.963-5.63 6.666 0 5.555 1.888 7.592 5.63 7.592 2.221 0 4.702-1.26 5.183-1.593v2.926c-.629.407-3.259 1.444-6.369 1.444m19.735-17.258c-3.073 0-4.703 2-4.776 5.703h9.59c-.075-3.296-1.666-5.703-4.814-5.703zm-4.776 8.073c.073 4.296 1.814 6.519 6.183 6.519 2.593 0 5.702-1.15 6.222-1.667v2.888c-.444.333-3.26 1.445-7.406 1.445-6.778 0-8.851-3.52-8.851-10.406 0-6.148 3.222-9.444 8.628-9.444 5.297 0 8.555 3.407 8.555 9.444v1.22H221.26zm27.77-7.888c-2.37 0-4.48.852-4.777.963v12.443c.518.222 2.518.926 4.74.926 3.74 0 5.259-2.259 5.259-7.666 0-4.74-1.815-6.666-5.222-6.666m-.074 17.072c-4 0-7.406-1.037-8.554-1.593V91.104h3.85v8.554c.556-.22 3.038-1.184 5.815-1.184 4.925 0 8.185 3.147 8.185 9.443 0 7.37-3 10.406-9.296 10.406m15.216-.444h3.851V98.918h-3.851v18.961zm-.074-22.589h4v-3.297h-4v3.297zm23.811 22.59v-11.556c0-3.48-1.26-5.036-4.555-5.036-2.111 0-4.074.593-4.74.852v15.74h-3.851v-17.85c.962-.335 4.813-1.556 8.702-1.556 5.296 0 8.296 2 8.296 6.221v13.184h-3.852zm10.586-.001h3.853V98.918h-3.853v18.961zm-.073-22.589h4v-3.297h-4v3.297zm35.881 22.59l-8.592-9.963 7.962-8.999h4.776l-8.59 9 9.48 9.961h-5.036zm-12.48 0h3.853V91.103h-3.853v26.775zm29.697-16.629c-3.814 0-5.296 2-5.296 6.666 0 5.63 1.482 7.666 5.296 7.666 3.666 0 5.333-2.186 5.333-7.666 0-4.629-1.556-6.666-5.333-6.666m0 17.072c-7.222 0-9.258-3.333-9.258-10.406 0-6.703 3.296-9.443 9.258-9.443 6.073 0 9.333 2.63 9.333 9.443 0 7.925-3.26 10.406-9.333 10.406m23.846-17.109c-2 0-4.148.667-4.74.814v15.851h-3.853V99.992c.667-.334 4.667-1.518 8.112-1.518.258 0 2.11.037 2.407.185v2.742a15.116 15.116 0 0 0-1.926-.187m14.847 17.11c-5.963 0-8.11-2.592-8.11-6.222V98.919h3.85v11.258c0 3.444.963 5.37 4.407 5.37 1.52 0 4.112-.37 4.592-.704V98.919h3.89v18.072c-1 .333-4.778 1.333-8.629 1.333"/></g></svg>