<svg xmlns="http://www.w3.org/2000/svg" width="299" height="41.27" viewBox="0 0 299 41.27">
  <path id="codesection" d="M-1737.193,39.81a12.227,12.227,0,0,1-3.227-1.375,11.861,11.861,0,0,1-2.674-2.223,13.207,13.207,0,0,1-2-3,15.52,15.52,0,0,1-1.252-3.679,20.742,20.742,0,0,1-.418-4.254,20.744,20.744,0,0,1,.418-4.254,15.52,15.52,0,0,1,1.252-3.679,13.209,13.209,0,0,1,2-3,11.865,11.865,0,0,1,2.674-2.223,12.231,12.231,0,0,1,3.227-1.374,14.285,14.285,0,0,1,3.666-.458,14.554,14.554,0,0,1,3.707.458,12.216,12.216,0,0,1,3.242,1.375,11.906,11.906,0,0,1,2.674,2.223,13.276,13.276,0,0,1,2,3,15.608,15.608,0,0,1,1.252,3.679,20.742,20.742,0,0,1,.416,4.254,20.741,20.741,0,0,1-.416,4.254,15.607,15.607,0,0,1-1.252,3.679,13.274,13.274,0,0,1-2,3,11.9,11.9,0,0,1-2.674,2.223,12.213,12.213,0,0,1-3.242,1.375,14.554,14.554,0,0,1-3.707.458A14.286,14.286,0,0,1-1737.193,39.81Zm1.635-26.313a8.363,8.363,0,0,0-1.826.605,8.173,8.173,0,0,0-1.621,1.008,9.419,9.419,0,0,0-1.416,1.412,10.328,10.328,0,0,0-1.148,1.758,11.855,11.855,0,0,0-.82,2.045,14.853,14.853,0,0,0-.492,2.332,19.905,19.905,0,0,0-.164,2.619,19.878,19.878,0,0,0,.164,2.617,14.79,14.79,0,0,0,.492,2.327,11.759,11.759,0,0,0,.82,2.036A10.2,10.2,0,0,0-1740.422,34a9.437,9.437,0,0,0,1.416,1.4,8.215,8.215,0,0,0,1.621,1,8.4,8.4,0,0,0,1.826.6,10.024,10.024,0,0,0,2.031.2,10.048,10.048,0,0,0,2.033-.2,8.466,8.466,0,0,0,1.832-.6,8.345,8.345,0,0,0,1.629-1,9.514,9.514,0,0,0,1.428-1.4,10.108,10.108,0,0,0,1.16-1.746,11.462,11.462,0,0,0,.828-2.036,14.576,14.576,0,0,0,.5-2.327,19.878,19.878,0,0,0,.166-2.617,19.906,19.906,0,0,0-.166-2.619,14.637,14.637,0,0,0-.5-2.332,11.557,11.557,0,0,0-.828-2.045,10.23,10.23,0,0,0-1.16-1.758,9.5,9.5,0,0,0-1.428-1.412,8.239,8.239,0,0,0-1.629-1.008,8.4,8.4,0,0,0-1.832-.605,9.971,9.971,0,0,0-2.033-.2,9.949,9.949,0,0,0-2.031.2Zm-58.48,26.313a11.887,11.887,0,0,1-3.174-1.375,11.814,11.814,0,0,1-2.627-2.223,13.3,13.3,0,0,1-1.969-3,15.87,15.87,0,0,1-1.23-3.679,21.018,21.018,0,0,1-.41-4.254,20.742,20.742,0,0,1,.416-4.254,15.7,15.7,0,0,1,1.252-3.679,13.5,13.5,0,0,1,2-3,11.886,11.886,0,0,1,2.654-2.223,12.086,12.086,0,0,1,3.193-1.375,13.925,13.925,0,0,1,3.617-.458,14.671,14.671,0,0,1,4.426.615,9.886,9.886,0,0,1,1.8.77,8.535,8.535,0,0,1,1.521,1.077,18.778,18.778,0,0,1,2.371,2.517,13.153,13.153,0,0,1,1.594,2.626l-3.447,1.149a15.788,15.788,0,0,0-1.3-2.12,15.7,15.7,0,0,0-1.621-1.874,5.621,5.621,0,0,0-2.225-1.313,10.024,10.024,0,0,0-3.109-.438,9.911,9.911,0,0,0-2.029.2,8.2,8.2,0,0,0-1.814.605,7.909,7.909,0,0,0-1.6,1.008,9.17,9.17,0,0,0-1.393,1.412,10.415,10.415,0,0,0-1.125,1.758,12,12,0,0,0-.8,2.045,15.078,15.078,0,0,0-.482,2.332,20.246,20.246,0,0,0-.16,2.619,17.763,17.763,0,0,0,.635,4.945,12.068,12.068,0,0,0,.795,2.036A10.271,10.271,0,0,0-1797.184,34a8.967,8.967,0,0,0,1.377,1.4,7.908,7.908,0,0,0,1.584,1,8.067,8.067,0,0,0,1.795.6,9.73,9.73,0,0,0,2,.2,9.6,9.6,0,0,0,2.932-.431,7.844,7.844,0,0,0,2.445-1.293,9.125,9.125,0,0,0,1.959-2.154,13.977,13.977,0,0,0,1.475-3.016l3.719.547a14.889,14.889,0,0,1-1.66,3.536,16.068,16.068,0,0,1-2.58,3.057,9.542,9.542,0,0,1-1.656,1.233,10.477,10.477,0,0,1-1.934.881,12.828,12.828,0,0,1-2.211.529,16.851,16.851,0,0,1-2.488.176,13.866,13.866,0,0,1-3.611-.459Zm-29.818,0a11.575,11.575,0,0,1-3.119-1.375,11.636,11.636,0,0,1-2.584-2.229,13.626,13.626,0,0,1-1.957-3.023,16.046,16.046,0,0,1-1.23-3.7,21.084,21.084,0,0,1-.41-4.261,20.618,20.618,0,0,1,.41-4.213,15.773,15.773,0,0,1,1.23-3.666,13.573,13.573,0,0,1,1.957-3,11.714,11.714,0,0,1,2.584-2.223,11.568,11.568,0,0,1,3.119-1.375,13.443,13.443,0,0,1,3.557-.458,13.562,13.562,0,0,1,3.619.472,11.947,11.947,0,0,1,3.193,1.416,11.38,11.38,0,0,1,2.639,2.312,13.527,13.527,0,0,1,1.957,3.16,16.153,16.153,0,0,1,1.17,3.919,22.992,22.992,0,0,1,.281,4.589h-21.994a15.421,15.421,0,0,0,.709,4.459,11.375,11.375,0,0,0,.809,1.881,10.4,10.4,0,0,0,1.107,1.648,8.984,8.984,0,0,0,1.35,1.34,7.862,7.862,0,0,0,1.535.957,7.853,7.853,0,0,0,1.721.575,9.247,9.247,0,0,0,1.9.191,11.622,11.622,0,0,0,3.338-.444,7.458,7.458,0,0,0,2.572-1.334,10.1,10.1,0,0,0,1.859-1.963,9.214,9.214,0,0,0,1.2-2.332l3.666.492A13.489,13.489,0,0,1-1809.371,35a13.894,13.894,0,0,1-2.613,2.784,9.76,9.76,0,0,1-1.67,1.089,11.2,11.2,0,0,1-1.943.778,16.448,16.448,0,0,1-4.7.622A13.45,13.45,0,0,1-1823.857,39.81Zm1.7-26.339a7.943,7.943,0,0,0-1.676.529,7.724,7.724,0,0,0-1.5.881,8.66,8.66,0,0,0-1.32,1.233,10.707,10.707,0,0,0-1.914,3.167,12.85,12.85,0,0,0-.82,3.864h18.219a12.85,12.85,0,0,0-.828-3.864,10.682,10.682,0,0,0-1.934-3.167,8.844,8.844,0,0,0-1.332-1.233,7.858,7.858,0,0,0-1.506-.881,8.091,8.091,0,0,0-1.682-.529,9.518,9.518,0,0,0-1.855-.176,9.5,9.5,0,0,0-1.854.177Zm-30.518,26.188a12.513,12.513,0,0,1-1.957-.76,11.748,11.748,0,0,1-1.756-1.065,10.617,10.617,0,0,1-1.486-1.318,9.456,9.456,0,0,1-1.146-1.521,9.46,9.46,0,0,1-.809-1.722,10.67,10.67,0,0,1-.471-1.924l3.338-.766a8.155,8.155,0,0,0,1.012,2.818A7.139,7.139,0,0,0-1854,35.508a8.818,8.818,0,0,0,2.668,1.313,11.122,11.122,0,0,0,3.186.438,11.825,11.825,0,0,0,3.084-.376,7.917,7.917,0,0,0,2.469-1.128,5.08,5.08,0,0,0,1.623-1.771,4.894,4.894,0,0,0,.539-2.3,4.548,4.548,0,0,0-.437-2.066,3.362,3.362,0,0,0-1.314-1.381,10.855,10.855,0,0,0-2.187-.944,25.194,25.194,0,0,0-3.064-.752l-3.117-.492a20.226,20.226,0,0,1-3.541-.951,12.243,12.243,0,0,1-2.75-1.429,5.234,5.234,0,0,1-1.029-.959,5.319,5.319,0,0,1-.734-1.209,7.854,7.854,0,0,1-.59-3.166,7.948,7.948,0,0,1,.186-1.719,6.676,6.676,0,0,1,.555-1.544,6.8,6.8,0,0,1,.922-1.369,8.23,8.23,0,0,1,1.295-1.2,10.465,10.465,0,0,1,3.391-1.662,15.414,15.414,0,0,1,4.268-.554,13.783,13.783,0,0,1,2.736.267,12.2,12.2,0,0,1,2.516.8,11.65,11.65,0,0,1,2.189,1.258,10.049,10.049,0,0,1,1.75,1.641,8.639,8.639,0,0,1,1.232,1.935,7.95,7.95,0,0,1,.629,2.141l-3.283.711a6.842,6.842,0,0,0-.951-2.325,7.073,7.073,0,0,0-1.756-1.833,8.035,8.035,0,0,0-2.346-1.19,9.088,9.088,0,0,0-2.717-.4,10.718,10.718,0,0,0-2.811.342,6.758,6.758,0,0,0-2.2,1.026,4.583,4.583,0,0,0-1.416,1.6,4.459,4.459,0,0,0-.471,2.066,3.929,3.929,0,0,0,.41,1.847,3.252,3.252,0,0,0,1.23,1.272,9.5,9.5,0,0,0,1.982.862,19.172,19.172,0,0,0,2.668.616l3.174.547a24.244,24.244,0,0,1,3.934.992,12.74,12.74,0,0,1,2.934,1.443,5.108,5.108,0,0,1,1.064.976,5.316,5.316,0,0,1,.76,1.26,8.469,8.469,0,0,1,.609,3.372,9.336,9.336,0,0,1-.2,1.963,7.439,7.439,0,0,1-.6,1.731,7.027,7.027,0,0,1-1,1.5,8.232,8.232,0,0,1-1.4,1.265,10.964,10.964,0,0,1-1.715,1.005,12.412,12.412,0,0,1-1.943.718,17.092,17.092,0,0,1-4.576.575,15.95,15.95,0,0,1-4.52-.609Zm-31.492.137a13.1,13.1,0,0,1-3.42-1.416,12.623,12.623,0,0,1-2.809-2.264,13.2,13.2,0,0,1-2.086-3.016,15.268,15.268,0,0,1-1.293-3.666,19.7,19.7,0,0,1-.432-4.213,20.933,20.933,0,0,1,.424-4.3,15.7,15.7,0,0,1,1.273-3.714,13.328,13.328,0,0,1,2.051-3.036,12.409,12.409,0,0,1,2.764-2.271,12.594,12.594,0,0,1,3.406-1.416,16.092,16.092,0,0,1,3.98-.472,16.488,16.488,0,0,1,3.863.438,13.444,13.444,0,0,1,3.385,1.313,11.928,11.928,0,0,1,2.8,2.155,13.037,13.037,0,0,1,2.121,2.961,14.74,14.74,0,0,1,1.334,3.686,20.029,20.029,0,0,1,.443,4.329c0,.763-.018,1.353-.053,1.751h-21.283a11.894,11.894,0,0,0,.588,3.488,8.917,8.917,0,0,0,1.545,2.8,6.67,6.67,0,0,0,2.338,1.846,7.014,7.014,0,0,0,2.971.615,9.248,9.248,0,0,0,2.756-.376,5.43,5.43,0,0,0,2.029-1.128,8.7,8.7,0,0,0,1.416-1.621,7.642,7.642,0,0,0,.908-1.853l6.512.711a12.343,12.343,0,0,1-1.641,3.467A14.312,14.312,0,0,1-1871,37.559a10.117,10.117,0,0,1-1.809,1.185,12.157,12.157,0,0,1-2.145.846,16.1,16.1,0,0,1-2.479.508,22.3,22.3,0,0,1-2.814.169,15.722,15.722,0,0,1-3.912-.471Zm.973-24.4a5.962,5.962,0,0,0-2.2,1.539,8.267,8.267,0,0,0-1.477,2.3,9.782,9.782,0,0,0-.711,2.811h14.662a9.654,9.654,0,0,0-.717-2.811,8.236,8.236,0,0,0-1.5-2.3,6.053,6.053,0,0,0-2.236-1.539,7.945,7.945,0,0,0-2.934-.512,7.7,7.7,0,0,0-2.887.513Zm-34.6,24.4a11.556,11.556,0,0,1-3.139-1.416,12.225,12.225,0,0,1-2.611-2.271,14,14,0,0,1-1.984-3.036,15.956,15.956,0,0,1-1.252-3.686,20.548,20.548,0,0,1-.416-4.22,21.085,21.085,0,0,1,.41-4.261,16.047,16.047,0,0,1,1.23-3.7,13.656,13.656,0,0,1,1.971-3.036,12.015,12.015,0,0,1,2.625-2.271,11.84,11.84,0,0,1,3.146-1.416,12.964,12.964,0,0,1,3.529-.472,13.958,13.958,0,0,1,2.783.267,10.856,10.856,0,0,1,2.441.8,9.19,9.19,0,0,1,2,1.265,7.523,7.523,0,0,1,1.471,1.662h.219V0h6.4V39.611h-6.129v-3.72h-.219a7.683,7.683,0,0,1-1.49,1.847,8.816,8.816,0,0,1-2.066,1.381,10.987,10.987,0,0,1-2.516.862,13.618,13.618,0,0,1-2.846.287,13.151,13.151,0,0,1-3.562-.472Zm3.252-24.528a6.96,6.96,0,0,0-1.541.5,6.48,6.48,0,0,0-1.346.838,7.226,7.226,0,0,0-1.15,1.174,9.178,9.178,0,0,0-1.58,3.187,15.387,15.387,0,0,0-.527,4.2,15.386,15.386,0,0,0,.527,4.2,9.208,9.208,0,0,0,1.578,3.187,7.315,7.315,0,0,0,1.152,1.174,6.48,6.48,0,0,0,1.346.838,6.96,6.96,0,0,0,1.541.5,8.672,8.672,0,0,0,1.734.167,8.459,8.459,0,0,0,1.711-.167,6.854,6.854,0,0,0,1.523-.5,6.5,6.5,0,0,0,1.334-.838,7.347,7.347,0,0,0,1.148-1.174,9.212,9.212,0,0,0,1.58-3.187,15.309,15.309,0,0,0,.525-4.2,15.309,15.309,0,0,0-.525-4.2,9.212,9.212,0,0,0-1.58-3.187,7.348,7.348,0,0,0-1.148-1.174,6.5,6.5,0,0,0-1.334-.838,6.854,6.854,0,0,0-1.523-.5,8.46,8.46,0,0,0-1.711-.167,8.693,8.693,0,0,0-1.734.167ZM-1949.248,39.8a13.605,13.605,0,0,1-3.521-1.4,12.555,12.555,0,0,1-2.881-2.25,12.994,12.994,0,0,1-2.125-3.03,15.285,15.285,0,0,1-1.314-3.7,19.9,19.9,0,0,1-.437-4.261,19.957,19.957,0,0,1,.438-4.267,15.621,15.621,0,0,1,1.314-3.72,13.045,13.045,0,0,1,2.125-3.05,12.472,12.472,0,0,1,2.881-2.257,13.6,13.6,0,0,1,3.521-1.4,17.05,17.05,0,0,1,4.057-.465,16.966,16.966,0,0,1,4.047.465,13.452,13.452,0,0,1,3.5,1.4,12.382,12.382,0,0,1,2.857,2.257,13.082,13.082,0,0,1,2.121,3.05,15.531,15.531,0,0,1,1.313,3.72,19.957,19.957,0,0,1,.438,4.267,19.649,19.649,0,0,1-.437,4.261,15.363,15.363,0,0,1-1.312,3.7,13.09,13.09,0,0,1-2.121,3.03,12.464,12.464,0,0,1-2.857,2.25,13.452,13.452,0,0,1-3.5,1.4,16.964,16.964,0,0,1-4.047.465,17.051,17.051,0,0,1-4.057-.465Zm2.344-24.59a6.889,6.889,0,0,0-1.523.5,6.562,6.562,0,0,0-1.336.838,7.331,7.331,0,0,0-1.146,1.174,9.2,9.2,0,0,0-1.58,3.2,15.69,15.69,0,0,0-.527,4.24,15.8,15.8,0,0,0,.521,4.233,9.108,9.108,0,0,0,1.559,3.18,7.155,7.155,0,0,0,1.139,1.161,6.445,6.445,0,0,0,1.338.829,6.959,6.959,0,0,0,1.535.5,8.745,8.745,0,0,0,1.734.165,8.52,8.52,0,0,0,1.709-.165,6.853,6.853,0,0,0,1.518-.5,6.483,6.483,0,0,0,1.328-.829,7.265,7.265,0,0,0,1.135-1.161,9.074,9.074,0,0,0,1.559-3.18,15.794,15.794,0,0,0,.52-4.233,15.845,15.845,0,0,0-.52-4.24,9.22,9.22,0,0,0-1.559-3.2,7.35,7.35,0,0,0-1.135-1.174,6.4,6.4,0,0,0-1.328-.838,6.821,6.821,0,0,0-1.518-.5,8.445,8.445,0,0,0-1.709-.167,8.464,8.464,0,0,0-1.713.168ZM-1980,39.8a12.92,12.92,0,0,1-3.412-1.4,12.284,12.284,0,0,1-2.164-1.62,12.553,12.553,0,0,1-1.764-2.06l5.262-3.038a8.076,8.076,0,0,0,.58.89,7.071,7.071,0,0,0,1.09,1.161,6.207,6.207,0,0,0,1.27.829,6.39,6.39,0,0,0,1.451.5,7.8,7.8,0,0,0,1.633.165,8.225,8.225,0,0,0,2.826-.444,5.041,5.041,0,0,0,2.018-1.334,9.536,9.536,0,0,0,1.359-1.935,9.979,9.979,0,0,0,.855-2.25l6.512.876a13.838,13.838,0,0,1-1.607,3.8,15.489,15.489,0,0,1-2.744,3.289,10.232,10.232,0,0,1-1.816,1.328,11.6,11.6,0,0,1-2.143.949,14.613,14.613,0,0,1-2.469.569,19.654,19.654,0,0,1-2.791.19A16.143,16.143,0,0,1-1980,39.8Zm213.725-.226a7.984,7.984,0,0,1-1.779-.431,4.073,4.073,0,0,1-1.271-.773,3.762,3.762,0,0,1-.861-1.169,6.194,6.194,0,0,1-.494-1.641,13.243,13.243,0,0,1-.164-2.188V13.787h-4.869V10.942h4.871V2.571h3.557v8.371h6.949v2.845h-6.949V32.608a8.208,8.208,0,0,0,.191,1.929,2.648,2.648,0,0,0,.574,1.19,2.376,2.376,0,0,0,1.121.616,6.993,6.993,0,0,0,1.832.205c1.234,0,2.266-.037,3.064-.109v3.174c-1.088.073-2.229.109-3.391.109a17.637,17.637,0,0,1-2.381-.144Zm74.27.034h-3.555V21.885a15.11,15.11,0,0,0-.432-3.837,6.744,6.744,0,0,0-1.293-2.647,4.864,4.864,0,0,0-.992-.9,5.76,5.76,0,0,0-1.256-.641,9.586,9.586,0,0,0-3.3-.512,8.713,8.713,0,0,0-3.324.622,8.292,8.292,0,0,0-2.75,1.868,7.135,7.135,0,0,0-1.076,1.411,8.746,8.746,0,0,0-.77,1.742,14.709,14.709,0,0,0-.615,4.479v16.14h-3.611V10.942h3.391v4.377h.166a7.711,7.711,0,0,1,1.449-1.963,10.468,10.468,0,0,1,2.16-1.621,10.686,10.686,0,0,1,2.668-1.087,11.918,11.918,0,0,1,2.969-.362,14.016,14.016,0,0,1,2.184.164,11.091,11.091,0,0,1,1.961.492,9.514,9.514,0,0,1,1.732.821,9.1,9.1,0,0,1,1.508,1.149,8.224,8.224,0,0,1,1.221,1.45,8.633,8.633,0,0,1,.871,1.723,10.385,10.385,0,0,1,.523,2,14.031,14.031,0,0,1,.174,2.271V39.611h0Zm-60.018,0h-3.611V10.942h3.611V39.611Zm-236.8-7.7h0a16.174,16.174,0,0,1-.883-3.178,20.923,20.923,0,0,1-.295-3.561,20.908,20.908,0,0,1,.285-3.509,16.711,16.711,0,0,1,.852-3.147l4.354,2.512,5.088,2.752a1.655,1.655,0,0,1,.867,1.454,1.655,1.655,0,0,1-.867,1.454l-5.654,3.058-3.746,2.164h0Zm19.668-11.554h0a9.045,9.045,0,0,0-.889-1.963,9.571,9.571,0,0,0-1.355-1.73,5.009,5.009,0,0,0-1.955-1.21,8.247,8.247,0,0,0-2.7-.4,7.717,7.717,0,0,0-1.633.167,6.362,6.362,0,0,0-1.451.5,6.125,6.125,0,0,0-1.27.838,7.153,7.153,0,0,0-1.09,1.174,8.314,8.314,0,0,0-.633.993l-5.279-3.049a12.629,12.629,0,0,1,1.787-2.134,12.364,12.364,0,0,1,2.209-1.665,12.928,12.928,0,0,1,3.414-1.4,16.138,16.138,0,0,1,3.945-.465,20.4,20.4,0,0,1,2.707.171,14.724,14.724,0,0,1,2.375.512,11.187,11.187,0,0,1,2.043.855,9.326,9.326,0,0,1,1.711,1.2,17.013,17.013,0,0,1,2.592,2.831,12.068,12.068,0,0,1,1.594,3.023l-6.127,1.751ZM-1751.91,4.432h-3.885V0h3.885V4.431h0Z" transform="translate(1990.502 0.5)" fill="#121212" stroke="rgba(0,0,0,0)" stroke-miterlimit="10" stroke-width="1"/>
</svg>
