<svg xmlns="http://www.w3.org/2000/svg" xmlns:xlink="http://www.w3.org/1999/xlink" viewBox="0 0 450.98 103.17"><defs><style>.cls-1{fill:none;}.cls-2{isolation:isolate;}.cls-11,.cls-3{fill:#fff;}.cls-4{clip-path:url(#clip-path);}.cls-5{opacity:0.05;}.cls-6{fill:#f38632;}.cls-7{fill:#4e4e4e;}.cls-8{fill:url(#linear-gradient);}.cls-9{fill:#f6a259;}.cls-10{fill:#1a1a1a;opacity:0.2;mix-blend-mode:multiply;}.cls-11{opacity:0.15;}</style><clipPath id="clip-path" transform="translate(-18 150.59)"><circle class="cls-1" cx="69.59" cy="-99" r="51.59"/></clipPath><linearGradient id="linear-gradient" x1="189.55" y1="106.75" x2="218.94" y2="106.75" gradientTransform="translate(-145.48 -85.32) rotate(6.74)" gradientUnits="userSpaceOnUse"><stop offset="0" stop-color="#f1ceba"/><stop offset="1" stop-color="#b8846f"/></linearGradient></defs><title>jotform-logo-transparent</title><g class="cls-2"><g id="Layer_1" data-name="Layer 1"><circle class="cls-3" cx="51.59" cy="51.59" r="51.59"/><g class="cls-4"><path class="cls-5" d="M111.82-90.5l6.27-26.09a51.75,51.75,0,0,0-26.56-29.1L82.11-94.88,47-66.38Z" transform="translate(-18 150.59)"/><path class="cls-6" d="M69.59-150.59a51.59,51.59,0,0,0-13.9,1.91l-4.62,17.07,9.62,1.36,9.92,3.41,9,4.49,7.14-25.32A51.47,51.47,0,0,0,69.59-150.59Z" transform="translate(-18 150.59)"/><polygon class="cls-7" points="38.68 68.24 29.01 84.21 30.16 65.47 33 65.58 36.45 66.54 38.68 68.24"/><polygon class="cls-8" points="38.68 68.24 36.45 66.54 33 65.58 30.16 65.47 33.06 18.98 42.68 20.34 52.6 23.75 61.56 28.24 38.68 68.24"/><path class="cls-9" d="M55.68-148.67l-4.62,17.07,9.62,1.36,5.85-20.25A51.45,51.45,0,0,0,55.68-148.67Z" transform="translate(-18 150.59)"/><path class="cls-10" d="M86.7-147.67A51.2,51.2,0,0,0,77.54-150L70.6-126.83,47-66.38l9.66-16,22.88-40Z" transform="translate(-18 150.59)"/><polygon class="cls-11" points="29.01 83.96 42.68 20.34 33.06 18.98 29.01 83.96"/><circle class="cls-1" cx="51.59" cy="51.59" r="51.59"/></g><polygon class="cls-6" points="297 28.59 269.2 28.59 265.23 46.59 290.82 46.59 288.03 60.59 262.44 60.59 256.26 89.58 241.25 89.58 257.29 14.59 299.94 14.59 297 28.59"/><path class="cls-6" d="M340.89-121.48c-18.82,0-25.44,15-28.67,30-3.09,14.57-.88,31.62,19.41,31.62,18.83,0,25.31-14.85,28.54-30.14C363.25-104.42,361.18-121.48,340.89-121.48Zm5.29,31.32c-2.35,11.18-6.62,16.76-14.26,16.48-7.94-.3-7.5-9.56-5.74-17.65,2.36-10.88,6.47-16.62,14.13-16.32C348.69-107.37,347.8-97.95,346.18-90.16Z" transform="translate(-18 150.59)"/><path class="cls-6" d="M396.8-107.22c-11.62.73-14.41,8.85-15.74,15.33L374.44-61H359.89l12.65-60h7.05l.74,8.21c3.82-5.59,9.12-9.34,19.71-9.34Z" transform="translate(-18 150.59)"/><path class="cls-6" d="M460.22-61H445.65l7.94-37.23c.74-3.67,2.21-9.78-3.38-9.78-5,0-7.21,4.32-8.68,11.23L433.89-61H419.18l7.94-37.23c.89-3.81,2.22-9.78-3.22-9.78-5.15,0-7.36,4.32-8.82,11.23L407.42-61H392.85l12.65-60h7.2l.6,8.07A18.91,18.91,0,0,1,429-121.69c5.29,0,10.14,2.83,11.46,8.26,4.13-5.88,9.27-8.21,15.16-8.21,13.09,0,15.14,11.2,12.06,25.91Z" transform="translate(-18 150.59)"/><path class="cls-6" d="M165.48-82c-2.94,14.55-7.35,23.08-31.92,21.31L136.36-74c9.85.14,12.79-2.06,14.12-8.66L161.94-136h15Z" transform="translate(-18 150.59)"/><path class="cls-6" d="M204-121.48c-18.82,0-25.44,15-28.68,30-3.08,14.57-.89,31.62,19.42,31.62,18.82,0,25.29-14.85,28.54-30.14C226.34-104.42,224.27-121.48,204-121.48Zm5.3,31.32C206.92-79,202.66-73.39,195-73.68c-7.94-.3-7.5-9.56-5.73-17.65,2.34-10.88,6.46-16.62,14.12-16.32C211.78-107.37,210.89-97.95,209.28-90.16Z" transform="translate(-18 150.59)"/><path class="cls-6" d="M261.51-108H249.9L244-80.26c-1.33,5.89,0,6.81,10.13,7l-2.78,13.12c-20.6.88-25.16-6.13-21.91-21.41L235-108h-6.77l1.62-8.13,8-4.72L241.07-136h14.56l-3.24,15h11.92Z" transform="translate(-18 150.59)"/></g></g></svg>