<svg width="118" height="20" xmlns="http://www.w3.org/2000/svg"><path d="M96.112 10.214c.6-.06.671.192.608.682-.848 6.506-7.943 10.778-14.026 8.472-3.737-1.417-6.3-5.061-6.214-9.077.118-5.407 4.154-9.36 8.875-10.144C89.59-.558 93.22 1.303 95.54 5.154c.736 1.219.737 1.222-.48 1.93-3.673 2.137-7.343 4.285-11.033 6.396-.576.33-.533.488-.053.85 1.759 1.33 4.163 1.129 6.039-.528.868-.765 1.41-1.711 1.59-2.854.043-.275.105-.414.416-.432 1.366-.083 2.731-.165 4.092-.302zm-13.604.292c2.287-1.33 4.572-2.665 6.867-3.976.44-.25.5-.398.057-.721-1.51-1.105-3.107-1.31-4.793-.49-1.813.884-2.953 2.251-2.963 4.374 0 .12-.002.238.001.357.017.917.03.922.831.456zM118 11.38c-.28.349-.23.797-.359 1.192-1.37 4.183-4.214 6.614-8.554 7.247-4.247.618-8.887-1.576-10.77-5.883-2.53-5.795.998-12.247 7.217-13.499 4.708-.948 8.955.995 11.238 4.957.549.95.888 1.98 1.084 3.058.024.131-.026.291.144.365v2.563zm-10.292 3.727c2.942.01 4.845-1.959 4.924-4.94.08-2.993-1.887-5.2-4.781-5.232-3.182-.035-4.99 2.467-5.015 4.999-.03 3.218 1.815 5.16 4.872 5.173zM4.704 3.195c.252-.369.42-.646.617-.899C6.329 1.005 7.672.363 9.287.265c1.517-.093 3.011-.047 4.458.52 1.158.455 2.11 1.155 2.821 2.172.27.388.415.552.756.022 1.028-1.598 2.573-2.4 4.412-2.632 1.646-.208 3.3-.258 4.903.284 2.673.903 4.016 2.928 4.566 5.586.207.997.317 2.008.314 3.032-.008 3.133-.017 6.265.011 9.397.006.573-.164.724-.716.707a54.464 54.464 0 0 0-3.756 0c-.628.023-.844-.127-.836-.808a314.66 314.66 0 0 0-.02-8.47c-.013-.87-.087-1.745-.356-2.593-.532-1.672-1.405-2.414-3.024-2.503-1.844-.1-3.141.621-3.811 2.117a6.065 6.065 0 0 0-.554 2.475c-.012 3.014-.025 6.029-.007 9.041.003.545-.124.759-.708.741a64.904 64.904 0 0 0-3.97 0c-.553.015-.72-.136-.714-.708.027-2.919.018-5.838.004-8.757-.004-.878-.157-1.736-.406-2.584-.408-1.394-1.336-2.152-2.74-2.3-1.43-.153-2.743.115-3.645 1.385-.806 1.131-.975 2.454-.989 3.789-.029 2.823-.025 5.648.005 8.47.006.576-.166.719-.716.705a93.484 93.484 0 0 0-4.04-.006c-.399.006-.53-.123-.529-.526.01-5.839.01-11.677 0-17.515 0-.371.12-.5.49-.493 1.016.017 2.032.02 3.048 0 .353-.009.505.14.593.46.167.608.36 1.209.574 1.922zm48.948 6.514c.017 5.207-3.753 9.47-8.658 10.084-3.984.5-7.366-.693-9.814-3.927-3.601-4.757-2.192-11.273 2.967-14.267 5.718-3.318 13.065-.604 15.08 5.57.304.93.452 1.884.425 2.54zm-10.287 5.398c2.728.157 4.925-1.803 4.99-5.06.059-2.994-1.93-4.998-4.804-5.102-3.176-.118-5.042 2.608-4.999 5.001.057 3.258 1.752 5.14 4.813 5.16zm17.1-12.01c.373-.21.478-.548.693-.793C62.16 1.167 63.425.545 64.904.356c2.035-.26 4.059-.24 5.992.547 2.637 1.075 3.922 3.208 4.417 5.91.261 1.425.3 2.869.29 4.317a471.59 471.59 0 0 0 .006 7.616c.003.472-.14.612-.602.602a84.824 84.824 0 0 0-3.967.003c-.547.017-.73-.124-.723-.702.03-2.753.014-5.505.013-8.258a9.33 9.33 0 0 0-.218-1.898c-.602-2.935-2.793-3.835-5.352-3.445-2.697.411-4.036 2.045-4.203 4.801-.177 2.914-.051 5.831-.07 8.747-.002.588-.152.776-.75.757-1.344-.044-2.69-.026-4.038-.006-.402.006-.523-.126-.522-.528.009-5.836.01-11.672-.002-17.508-.001-.44.185-.504.552-.498 1.156.016 2.315.022 3.472-.004.382-.008.545.153.651.486.19.596.403 1.185.615 1.803z" fill="#16232B" fill-rule="evenodd"/></svg>