<?xml version="1.0" encoding="UTF-8"?>
<svg width="370px" height="381px" viewBox="0 0 370 381" version="1.1" xmlns="http://www.w3.org/2000/svg" xmlns:xlink="http://www.w3.org/1999/xlink">
    <!-- Generator: Sketch 60 (88103) - https://sketch.com -->
    <title>Logo-Renkli</title>
    <desc>Created with Sketch.</desc>
    <defs>
        <radialGradient cx="0%" cy="0%" fx="0%" fy="0%" r="141.552363%" gradientTransform="translate(0.000000,0.000000),scale(0.998152,1.000000),rotate(44.946997),translate(-0.000000,-0.000000)" id="radialGradient-1">
            <stop stop-color="#03DFEB" offset="0%"></stop>
            <stop stop-color="#02BCD3" offset="100%"></stop>
        </radialGradient>
    </defs>
    <g id="Page-1" stroke="none" stroke-width="1" fill="none" fill-rule="evenodd">
        <g id="LOGO-RENKLI" transform="translate(-534.000000, -256.000000)">
            <g id="Logo-Renkli" transform="translate(534.000000, 256.000000)">
                <g id="Group">
                    <path d="M325.533333,288 L181.533333,288 L181.533333,144 L181,144 L181,288 L37,288 L37,144 L37.5333333,144 L37.5333333,36 L38,0 L290,0 L325.533333,36 L325.533333,288 Z" id="Combined-Shape" fill="url(#radialGradient-1)"></path>
                    <polygon id="Rectangle" fill="#F4F4F9" points="180.533333 0 182.533333 0 182.533333 288 180.533333 288"></polygon>
                    <polygon id="Rectangle-Copy-4" fill="#F4F4F9" transform="translate(181.533333, 144.000000) rotate(-270.000000) translate(-181.533333, -144.000000) " points="180.533333 0 182.533333 0 182.533333 288 180.533333 288"></polygon>
                    <g id="Group-2-Copy-2" transform="translate(0.000000, 272.000000)" stroke="#000000" stroke-dasharray="0,9" stroke-linecap="round" stroke-linejoin="round">
                        <path d="M27,0 L27,113 M333,0 L333,116 M0,27 L373,27 M0,81 L373,81" id="Combined-Shape"></path>
                    </g>
                    <path d="M102.124333,95.541 L102.124333,78.912 L111.922333,78.912 C122.686333,78.912 127.447333,71.322 127.447333,63.525 C127.447333,55.728 122.686333,48 111.922333,48 L92.5333333,48 L92.5333333,95.541 L102.124333,95.541 Z M111.439333,70.494 L102.124333,70.494 L102.124333,56.487 L111.577333,56.487 C116.062333,56.487 117.787333,60.075 117.787333,63.525 C117.787333,66.906 116.062333,70.494 111.439333,70.494 Z" id="P" fill="#F4F4F9" fill-rule="nonzero"></path>
                    <path d="M240.745333,95.541 L244.540333,84.156 L262.342333,84.156 L266.206333,95.541 L276.280333,95.541 L258.616333,48 L248.266333,48 L230.533333,95.541 L240.745333,95.541 Z M259.444333,75.807 L247.369333,75.807 L253.372333,57.936 L259.444333,75.807 Z" id="A" fill="#F4F4F9" fill-rule="nonzero"></path>
                    <polygon id="T" fill="#F4F4F9" fill-rule="nonzero" points="114.234333 239.541 114.234333 200.487 127.344333 200.487 127.344333 192 91.5333333 192 91.5333333 200.487 104.643333 200.487 104.643333 239.541"></polygon>
                    <polygon id="H" fill="#F4F4F9" fill-rule="nonzero" points="245.124333 239.541 245.124333 220.221 262.857333 220.221 262.857333 239.541 272.448333 239.541 272.448333 192 262.857333 192 262.857333 211.596 245.124333 211.596 245.124333 192 235.533333 192 235.533333 239.541"></polygon>
                </g>
                <path d="M66.816,332 C72.332,332 75.552,327.856 75.552,322.396 C75.552,316.908 72.332,312.708 66.816,312.708 L59.256,312.708 L59.256,332 L66.816,332 Z M66.816,328.948 L62.672,328.948 L62.672,315.76 L66.816,315.76 C70.316,315.76 72.108,318.784 72.108,322.396 C72.108,325.98 70.316,328.948 66.816,328.948 Z M80.452,316.292 C81.628,316.292 82.552,315.424 82.552,314.304 C82.552,313.156 81.628,312.316 80.452,312.316 C79.304,312.316 78.324,313.156 78.324,314.304 C78.324,315.424 79.304,316.292 80.452,316.292 Z M82.076,332 L82.076,318.924 L78.828,318.924 L78.828,332 L82.076,332 Z M91.848,338.58 C96.328,338.58 99.184,336.032 99.184,330.152 L99.184,318.924 L95.936,318.924 L95.936,320.632 C95.012,319.288 93.248,318.644 91.568,318.644 C88.124,318.644 85.156,321.248 85.156,325.448 C85.156,329.62 88.152,332.28 91.596,332.28 C93.192,332.28 95.012,331.608 95.936,330.264 L95.936,330.46 C95.936,334.184 94.368,335.64 91.848,335.64 C90.42,335.64 88.992,334.8 88.348,333.512 L85.66,334.744 C86.808,337.124 89.16,338.58 91.848,338.58 Z M92.1,329.228 C90.084,329.228 88.432,327.604 88.432,325.42 C88.432,323.236 90.084,321.668 92.1,321.668 C93.976,321.668 95.88,323.124 95.88,325.42 C95.88,327.716 94.088,329.228 92.1,329.228 Z M104.672,316.292 C105.848,316.292 106.772,315.424 106.772,314.304 C106.772,313.156 105.848,312.316 104.672,312.316 C103.524,312.316 102.544,313.156 102.544,314.304 C102.544,315.424 103.524,316.292 104.672,316.292 Z M106.296,332 L106.296,318.924 L103.048,318.924 L103.048,332 L106.296,332 Z M114.584,332 L114.584,321.528 L117.356,321.528 L117.356,318.924 L114.584,318.924 L114.584,314.108 L111.336,314.108 L111.336,318.924 L108.984,318.924 L108.984,321.528 L111.336,321.528 L111.336,332 L114.584,332 Z M125.504,332.28 C127.1,332.28 128.948,331.636 129.844,330.236 L129.844,332 L133.092,332 L133.092,318.924 L129.844,318.924 L129.844,320.66 C128.948,319.288 127.128,318.644 125.476,318.644 C122.032,318.644 119.064,321.248 119.064,325.448 C119.064,329.62 122.06,332.28 125.504,332.28 Z M126.008,329.228 C123.992,329.228 122.34,327.604 122.34,325.42 C122.34,323.236 123.992,321.668 126.008,321.668 C127.884,321.668 129.788,323.124 129.788,325.42 C129.788,327.716 127.996,329.228 126.008,329.228 Z M140.204,332 L140.204,311.924 L136.956,311.924 L136.956,332 L140.204,332 Z M163.556,332 L163.556,328.948 L154.82,328.948 L154.82,324.076 L162.212,324.076 L162.212,320.968 L154.82,320.968 L154.82,315.76 L163.276,315.76 L163.276,312.708 L151.432,312.708 L151.432,332 L163.556,332 Z M168.904,332 L172.096,327.492 L175.26,332 L179.096,332 L173.944,324.86 L178.228,318.924 L174.392,318.924 L172.096,322.256 L169.8,318.924 L165.964,318.924 L170.248,324.86 L165.096,332 L168.904,332 Z M184.416,338.384 L184.416,330.236 C185.312,331.636 187.132,332.252 188.784,332.252 C192.228,332.252 195.196,329.648 195.196,325.448 C195.196,321.276 192.2,318.644 188.756,318.644 C187.188,318.644 185.312,319.288 184.416,320.66 L184.416,318.924 L181.168,318.924 L181.168,338.384 L184.416,338.384 Z M188.252,329.228 C186.376,329.228 184.472,327.772 184.472,325.476 C184.472,323.18 186.264,321.668 188.252,321.668 C190.268,321.668 191.948,323.292 191.948,325.476 C191.948,327.66 190.268,329.228 188.252,329.228 Z M204.352,332.28 C206.732,332.28 209.028,331.272 210.232,329.368 L208.076,327.716 C207.292,328.78 205.948,329.34 204.52,329.34 C202.588,329.34 201.188,328.416 200.824,326.596 L210.932,326.596 C210.988,326.12 211.016,325.7 211.016,325.336 C211.016,321.248 208.076,318.644 204.324,318.644 C200.6,318.644 197.464,321.276 197.464,325.448 C197.464,329.536 200.432,332.28 204.352,332.28 Z M207.768,324.328 L200.824,324.328 C201.216,322.34 202.616,321.5 204.38,321.5 C206.2,321.5 207.572,322.536 207.768,324.328 Z M217.26,332 L217.26,327.436 C217.26,323.768 218.436,321.696 220.564,321.696 C221.04,321.696 221.712,321.78 222.468,322.172 L223.112,319.092 C222.608,318.812 221.768,318.644 220.984,318.644 C219.36,318.644 217.932,319.54 217.232,321.724 L217.232,318.924 L213.984,318.924 L213.984,332 L217.26,332 Z M226.892,316.292 C228.068,316.292 228.992,315.424 228.992,314.304 C228.992,313.156 228.068,312.316 226.892,312.316 C225.744,312.316 224.764,313.156 224.764,314.304 C224.764,315.424 225.744,316.292 226.892,316.292 Z M228.516,332 L228.516,318.924 L225.268,318.924 L225.268,332 L228.516,332 Z M238.456,332.28 C240.836,332.28 243.132,331.272 244.336,329.368 L242.18,327.716 C241.396,328.78 240.052,329.34 238.624,329.34 C236.692,329.34 235.292,328.416 234.928,326.596 L245.036,326.596 C245.092,326.12 245.12,325.7 245.12,325.336 C245.12,321.248 242.18,318.644 238.428,318.644 C234.704,318.644 231.568,321.276 231.568,325.448 C231.568,329.536 234.536,332.28 238.456,332.28 Z M241.872,324.328 L234.928,324.328 C235.32,322.34 236.72,321.5 238.484,321.5 C240.304,321.5 241.676,322.536 241.872,324.328 Z M251.336,332 L251.336,325.168 C251.336,322.648 253.184,321.836 254.668,321.836 C256.124,321.836 257.384,322.9 257.384,324.972 L257.384,332 L260.632,332 L260.632,324.664 C260.632,320.856 258.756,318.644 255.396,318.644 C254.052,318.644 252.008,319.372 251.336,320.996 L251.336,318.924 L248.088,318.924 L248.088,332 L251.336,332 Z M270.628,332.252 C272.896,332.252 274.744,331.244 275.948,329.732 L273.624,327.912 C272.952,328.724 271.832,329.228 270.684,329.228 C268.416,329.228 266.792,327.632 266.792,325.448 C266.792,323.236 268.416,321.668 270.684,321.668 C271.832,321.668 272.952,322.172 273.624,322.984 L275.948,321.164 C274.744,319.624 272.896,318.644 270.628,318.644 C266.848,318.644 263.516,321.304 263.516,325.448 C263.516,329.592 266.848,332.252 270.628,332.252 Z M284.796,332.28 C287.176,332.28 289.472,331.272 290.676,329.368 L288.52,327.716 C287.736,328.78 286.392,329.34 284.964,329.34 C283.032,329.34 281.632,328.416 281.268,326.596 L291.376,326.596 C291.432,326.12 291.46,325.7 291.46,325.336 C291.46,321.248 288.52,318.644 284.768,318.644 C281.044,318.644 277.908,321.276 277.908,325.448 C277.908,329.536 280.876,332.28 284.796,332.28 Z M288.212,324.328 L281.268,324.328 C281.66,322.34 283.06,321.5 284.824,321.5 C286.644,321.5 288.016,322.536 288.212,324.328 Z M298.796,332.28 C301.456,332.28 304.116,330.88 304.116,328.22 C304.116,327.016 303.584,325.168 300.644,324.412 L298.544,323.852 C297.788,323.684 297.144,323.292 297.144,322.62 C297.144,321.808 297.844,321.248 298.852,321.248 C299.776,321.248 300.588,321.808 300.588,322.732 L303.696,322.732 C303.724,319.792 301.092,318.644 298.768,318.644 C295.912,318.644 293.896,320.436 293.896,322.48 C293.896,324.132 294.652,325.7 297.592,326.484 L299.328,326.932 C300.308,327.156 300.868,327.492 300.868,328.22 C300.868,329.06 300.028,329.648 298.74,329.648 C297.368,329.648 296.584,328.808 296.584,327.912 L293.532,327.912 C293.588,330.712 296.192,332.28 298.796,332.28 Z" id="DigitalExperiences" fill="#16151A" fill-rule="nonzero"></path>
            </g>
        </g>
    </g>
</svg>