<?xml version="1.0" encoding="UTF-8"?>
<svg width="172px" height="20px" viewBox="0 0 172 20" version="1.1" xmlns="http://www.w3.org/2000/svg" xmlns:xlink="http://www.w3.org/1999/xlink">
    <!-- Generator: Sketch 63.1 (92452) - https://sketch.com -->
    <title>Assets / Logos / logo-dark</title>
    <desc>Created with Sketch.</desc>
    <g id="Screens" stroke="none" stroke-width="1" fill="none" fill-rule="evenodd">
        <g id="Artboard" transform="translate(-352.000000, -120.000000)">
            <g id="Assets-/-Logos-/-logo-dark" transform="translate(352.000000, 120.000000)">
                <path d="M40.6629008,19.5870968 C44.0766412,19.5870968 46.6500763,18.1677419 46.6500763,15.2774194 C46.6500763,13.0322581 45.0482443,12 42.658626,11.5612903 L40.2952672,11.1741935 C39.271145,10.9935484 38.9560305,10.5806452 38.9560305,10.1677419 C38.9560305,9.6516129 39.4812214,9.23870968 40.5578626,9.23870968 C41.6870229,9.23870968 42.6323664,9.72903226 42.711145,10.683871 L46.5187786,10.683871 C46.3087023,7.38064516 43.2625954,6.3483871 40.5578626,6.3483871 C37.1703817,6.3483871 34.859542,7.89677419 34.859542,10.5548387 C34.859542,12.7225806 36.4351145,13.9612903 38.6146565,14.2967742 L41.2668702,14.7612903 C42.0546565,14.8903226 42.4222901,15.2 42.4222901,15.6129032 C42.4222901,16.1806452 41.7132824,16.516129 40.6103817,16.516129 C39.2448855,16.516129 38.3520611,16 38.1682443,14.916129 L34.3868702,14.8903226 C34.6494656,18.2193548 37.3541985,19.5870968 40.6629008,19.5870968 Z M55.2894656,19.5870968 C56.5499237,19.5870968 57.4952672,19.483871 59.1496183,18.9677419 L58.6769466,15.4322581 C57.7316031,15.6129032 57.0225954,15.7419355 56.418626,15.7419355 C55.1581679,15.7419355 54.4229008,15.1225806 54.4229008,13.8580645 L54.4229008,10.2709677 L58.7557252,10.2709677 L58.7557252,6.68387097 L54.4229008,6.68387097 L54.4229008,2.42580645 L50.168855,2.42580645 L50.168855,6.68387097 L47.6741985,6.68387097 L47.6741985,10.2709677 L50.168855,10.2709677 L50.168855,13.9870968 C50.168855,17.3677419 52.2170992,19.5870968 55.2894656,19.5870968 Z M66.6073282,19.4580645 C68.0253435,19.4580645 69.1545038,19.0967742 70.0998473,18.5032258 L70.0998473,19.2 L74.3538931,19.2 L74.3538931,6.68387097 L70.0998473,6.68387097 L70.0998473,7.35483871 C69.1545038,6.76129032 68.0253435,6.4 66.6073282,6.4 C63.1673282,6.4 60.2787786,9.18709677 60.2787786,12.9290323 C60.2787786,16.6451613 63.1673282,19.4580645 66.6073282,19.4580645 Z M67.4738931,16.0258065 C65.7407634,16.0258065 64.4540458,14.6580645 64.4540458,12.9290323 C64.4540458,11.2 65.7407634,9.80645161 67.4738931,9.80645161 C68.3929771,9.80645161 69.2858015,10.0903226 70.0998473,10.9677419 L70.0998473,14.8645161 C69.2858015,15.7677419 68.3929771,16.0258065 67.4738931,16.0258065 Z M83.5972519,19.5870968 C84.8577099,19.5870968 85.8030534,19.483871 87.4574046,18.9677419 L86.9847328,15.4322581 C86.0393893,15.6129032 85.3303817,15.7419355 84.7264122,15.7419355 C83.4659542,15.7419355 82.730687,15.1225806 82.730687,13.8580645 L82.730687,10.2709677 L87.0635115,10.2709677 L87.0635115,6.68387097 L82.730687,6.68387097 L82.730687,2.42580645 L78.4766412,2.42580645 L78.4766412,6.68387097 L75.9819847,6.68387097 L75.9819847,10.2709677 L78.4766412,10.2709677 L78.4766412,13.9870968 C78.4766412,17.3677419 80.5248855,19.5870968 83.5972519,19.5870968 Z M93.8647328,19.2 L93.8647328,11.1741935 C94.4687023,10.4 95.1251908,10.0903226 95.7554198,10.0903226 C97.1471756,10.0903226 98.04,10.9419355 98.04,12.7225806 L98.04,19.2 L102.294046,19.2 L102.294046,12.0516129 C102.294046,11.7419355 102.267786,11.4322581 102.241527,11.1225806 C102.871756,10.3741935 103.528244,10.0903226 104.184733,10.0903226 C105.576489,10.0903226 106.469313,10.9419355 106.469313,12.7225806 L106.469313,19.2 L110.723359,19.2 L110.723359,12.0516129 C110.723359,8.49032258 108.491298,6.29677419 105.445191,6.29677419 C103.554504,6.29677419 102.267786,6.81290323 100.92855,8 C99.9569466,6.89032258 98.5914504,6.29677419 96.9896183,6.29677419 C95.5978626,6.29677419 94.7050382,6.68387097 93.8647328,7.40645161 L93.8647328,6.68387097 L89.5844275,6.68387097 L89.5844275,19.2 L93.8647328,19.2 Z M119.782901,19.5612903 C122.934046,19.5612903 125.376183,17.8580645 126.006412,15.2774194 L121.778626,15.2774194 C121.410992,15.8451613 120.728244,16.1806452 119.83542,16.1806452 C118.10229,16.1806452 117.261985,15.2 116.97313,13.9612903 L126.032672,13.9612903 C126.085191,13.5741935 126.11145,13.1612903 126.11145,12.6709677 C126.11145,8.8 123.301679,6.29677419 119.572824,6.29677419 C115.528855,6.29677419 112.824122,9.05806452 112.824122,12.9290323 C112.824122,16.7483871 115.607634,19.5612903 119.782901,19.5612903 Z M122.041221,11.6387097 L116.999389,11.6387097 C117.314504,10.3483871 118.181069,9.52258065 119.651603,9.52258065 C120.96458,9.52258065 121.804885,10.2193548 122.041221,11.6387097 Z M134.803359,19.5870968 C136.063817,19.5870968 137.00916,19.483871 138.663511,18.9677419 L138.19084,15.4322581 C137.245496,15.6129032 136.536489,15.7419355 135.932519,15.7419355 C134.672061,15.7419355 133.936794,15.1225806 133.936794,13.8580645 L133.936794,10.2709677 L138.269618,10.2709677 L138.269618,6.68387097 L133.936794,6.68387097 L133.936794,2.42580645 L129.682748,2.42580645 L129.682748,6.68387097 L127.188092,6.68387097 L127.188092,10.2709677 L129.682748,10.2709677 L129.682748,13.9870968 C129.682748,17.3677419 131.730992,19.5870968 134.803359,19.5870968 Z M145.07084,19.2 L145.07084,12.0258065 C146.068702,11.0709677 147.381679,10.5290323 149.456183,10.4516129 L149.456183,6.47741935 C147.565496,6.47741935 146.2,7.07096774 145.07084,8.02580645 L145.07084,6.68387097 L140.790534,6.68387097 L140.790534,19.2 L145.07084,19.2 Z M153.762748,4.72258065 C155.128244,4.72258065 156.257405,3.71612903 156.257405,2.37419355 C156.257405,1.00645161 155.128244,4.58414668e-15 153.762748,4.58414668e-15 C152.370992,4.58414668e-15 151.268092,1.00645161 151.268092,2.37419355 C151.268092,3.71612903 152.370992,4.72258065 153.762748,4.72258065 Z M155.916031,19.2 L155.916031,6.68387097 L151.661985,6.68387097 L151.661985,19.2 L155.916031,19.2 Z M165.185649,19.483871 C168.704427,19.483871 171.40916,17.2903226 171.724275,14.0645161 L167.706565,14.0645161 C167.496489,15.2 166.498626,15.9483871 165.211908,15.9483871 C163.37374,15.9483871 162.297099,14.6322581 162.297099,12.9290323 C162.297099,11.2258065 163.37374,9.93548387 165.211908,9.93548387 C166.498626,9.93548387 167.496489,10.683871 167.706565,11.8193548 L171.724275,11.8193548 C171.40916,8.59354839 168.704427,6.4 165.185649,6.4 C161.194198,6.4 158.22687,9.13548387 158.22687,12.9290323 C158.22687,16.7483871 161.194198,19.483871 165.185649,19.483871 Z" id="statmetric" fill="#202020"></path>
                <g id="trend-up" transform="translate(0.000000, 6.296774)" fill="#17C065" fill-rule="nonzero">
                    <polygon id="Path" points="0.248598858 9.27656752 9.51908397 0.166038266 17.3969466 7.90806452 23.8821866 1.53463204 26.6674317 4.27181958 17.3969466 13.3823488 9.51908397 5.64032258 3.03384389 12.0137551"></polygon>
                    <polygon id="Path" points="28.2290076 0 28.2290076 11.6129032 24.2900763 11.6129032 24.2900763 3.87096774 16.4122137 3.87096774 16.4122137 0"></polygon>
                </g>
            </g>
        </g>
    </g>
</svg>