<?xml version="1.0" encoding="UTF-8"?>
<svg width="246px" height="73px" viewBox="0 0 246 73" version="1.1" xmlns="http://www.w3.org/2000/svg" xmlns:xlink="http://www.w3.org/1999/xlink">
    <defs>
        <radialGradient cx="50%" cy="47.0174687%" fx="50%" fy="47.0174687%" r="52.9825313%" id="radialGradient-1">
            <stop stop-color="#2A245B" offset="0%"></stop>
            <stop stop-color="#3FA9E0" offset="100%"></stop>
        </radialGradient>
    </defs>
    <g class="Page-1" stroke="none" stroke-width="1" fill="none" fill-rule="evenodd">
        <g class="Group" fill-rule="nonzero">
            <path d="M68.4857247,46.2568138 C74.0217246,40.7208139 74.0217246,31.7488141 68.4857247,26.2128143 L46.7750586,4.5008148 C41.2403921,-1.03518506 32.267059,-1.03518506 26.7337258,4.5008148 L5.020393,26.2128143 C-0.515606862,31.7488141 -0.515606862,40.7208139 5.020393,46.2568138 L26.7337258,67.9701465 C32.267059,73.5008131 41.2403921,73.5008131 46.7750586,67.9701465 L68.4857247,46.2568138 Z" id="path22" fill="url(#radialGradient-1)" transform="translate(36.753059, 36.233481) scale(-1, 1) rotate(-180.000000) translate(-36.753059, -36.233481) "></path>
            <polygon id="path56" fill="#FFFFFF" transform="translate(36.762392, 40.731214) scale(-1, 1) rotate(-180.000000) translate(-36.762392, -40.731214) " points="6.2317263 55.9945468 24.5503925 55.9918802 36.7663922 43.7825472 48.9703919 55.9958802 67.2930581 55.9918802 36.7637255 25.4665476"></polygon>
            <path d="M105.019457,50.6320136 L99.2434573,32.2773474 C98.886124,31.0960141 98.4647907,30.2653475 97.978124,29.7773475 C97.5434574,29.3106808 96.918124,29.0746809 96.1101241,29.0746809 C95.3661241,29.0746809 94.7821241,29.2800142 94.3607908,29.6960142 C93.9407908,30.1053475 93.5501241,30.8626808 93.1967908,31.9600141 L87.0141243,50.6320136 L91.9927908,50.6346803 L95.9647907,36.5013473 L100.287457,50.6320136 L105.019457,50.6320136 Z" id="path60" fill="#2A245B" transform="translate(96.016791, 39.854681) scale(-1, 1) rotate(-180.000000) translate(-96.016791, -39.854681) "></path>
            <path d="M115.79559,46.1036138 C113.998257,46.1036138 112.486257,45.4636138 111.256924,44.1862805 C110.136924,43.0382805 109.582257,41.6302805 109.582257,39.9636139 C109.582257,38.1689473 110.238257,36.6609473 111.544924,35.447614 C112.694257,34.3956141 114.090257,33.8662807 115.722257,33.8662807 C117.550257,33.8662807 119.07159,34.5249474 120.28759,35.835614 C121.290257,36.9649473 121.790257,38.2969473 121.790257,39.8196139 C121.790257,41.7916139 121.08759,43.4089472 119.678257,44.6742805 C119.112923,45.1556138 118.516923,45.5182804 117.894257,45.7516138 C117.27159,45.9862804 116.57159,46.1036138 115.79559,46.1036138 Z M126.50359,29.3769475 L121.620923,29.3769475 L121.620923,31.3196141 C119.662257,29.8302808 117.600924,29.0876142 115.434257,29.0876142 C112.92359,29.0876142 110.662257,29.9182808 108.65959,31.5876141 C107.506257,32.5409474 106.560924,33.7676141 105.81959,35.2649474 C105.074257,36.7622807 104.702257,38.3302806 104.702257,39.9636139 C104.702257,42.0796139 105.292924,44.0489471 106.472924,45.8609471 C107.574257,47.5449471 109.052924,48.8476137 110.91559,49.7702803 C111.65959,50.128947 112.434257,50.4022803 113.230257,50.5982803 C114.038257,50.788947 114.858257,50.884947 115.69959,50.884947 C118.17559,50.884947 120.43559,50.1036137 122.48359,48.544947 C124.532923,46.9809471 125.798257,44.8516138 126.27959,42.1476139 C126.428923,41.2889472 126.50359,39.8956139 126.50359,37.9702806 L126.50359,29.3769475 Z" id="path64" fill="#2A245B" transform="translate(115.602924, 39.986281) scale(-1, 1) rotate(-180.000000) translate(-115.602924, -39.986281) "></path>
            <path d="M133.85279,29.1834809 L128.97279,29.1834809 L128.97279,41.6621472 C128.97279,44.6568138 129.767457,46.9234804 131.35279,48.4594804 C132.82879,49.8808137 134.81679,50.5954803 137.32479,50.5954803 L138.48879,50.5954803 L138.48879,45.8608138 C137.631456,45.8608138 136.891456,45.7434804 136.267456,45.5088138 C135.647456,45.2741471 135.162123,44.9514805 134.822123,44.5474805 C134.178123,43.7688138 133.85279,42.3808139 133.85279,40.3834806 L133.85279,29.1834809 Z" id="path68" fill="#2A245B" transform="translate(133.730790, 39.889481) scale(-1, 1) rotate(-180.000000) translate(-133.730790, -39.889481) "></path>
            <path d="M149.532523,57.8796135 C147.720523,57.8796135 146.207189,57.2396135 144.99119,55.9622802 C143.920523,54.8476135 143.389856,53.4702802 143.389856,51.8356136 C143.389856,49.7956137 144.160523,48.160947 145.696523,46.9316137 C146.781856,46.0742804 148.043189,45.6422804 149.483189,45.6422804 C151.201856,45.6422804 152.665856,46.2436138 153.879189,47.4422804 C155.024523,48.5596137 155.597856,49.9342803 155.597856,51.568947 C155.597856,53.4622802 154.873856,55.0796135 153.417856,56.4236135 C152.896523,56.8929468 152.313856,57.2542801 151.671189,57.5049468 C151.021856,57.7542801 150.308523,57.8796135 149.532523,57.8796135 M140.305856,39.2836139 L145.065856,39.2836139 C145.065856,38.6529473 145.141856,38.103614 145.292523,37.6342806 C145.448523,37.163614 145.672523,36.7022807 145.961856,36.251614 C146.983189,34.6502807 148.392523,33.8476141 150.185856,33.8476141 C151.045856,33.8476141 151.876523,34.0649474 152.688523,34.5022807 C153.496523,34.939614 154.144523,35.5302807 154.628523,36.275614 C155.193856,37.1809473 155.480523,38.6942806 155.480523,40.8142806 L155.480523,42.9502805 C153.696523,41.5596139 151.672523,40.8636139 149.409856,40.8636139 C148.084523,40.8636139 146.844523,41.0742806 145.696523,41.4942805 C144.548523,41.9129472 143.44719,42.5716138 142.396523,43.4609472 C141.196523,44.4969471 140.25119,45.7462804 139.556523,47.2102804 C138.857856,48.6782804 138.508523,50.2022803 138.508523,51.7862803 C138.508523,55.0542802 139.77519,57.7756135 142.292523,59.9449467 C144.39919,61.75428 146.821856,62.6609467 149.556523,62.6609467 C151.672523,62.6609467 153.625856,62.06228 155.407189,60.8662801 C157.120523,59.7182801 158.373856,58.2729468 159.171189,56.5356135 C159.959189,54.7942802 160.357856,52.6422803 160.357856,50.0876137 L160.357856,40.5222806 C160.357856,38.7942806 160.217856,37.379614 159.936522,36.2862807 C159.652522,35.191614 159.147189,34.1396141 158.415189,33.1196141 C157.493856,31.8556141 156.305856,30.8689475 154.844523,30.1556142 C153.389856,29.4449475 151.876523,29.0876142 150.308523,29.0876142 C148.220523,29.0876142 146.287189,29.6942808 144.505856,30.9102808 C141.704523,32.8516141 140.305856,35.6422807 140.305856,39.2836139" id="path72" fill="#2A245B" transform="translate(149.433189, 45.874280) scale(-1, 1) rotate(-180.000000) translate(-149.433189, -45.874280) "></path>
            <path d="M172.662789,46.1036138 C170.850789,46.1036138 169.305456,45.4089471 168.026789,44.0182805 C166.988122,42.8822805 166.469456,41.5302805 166.469456,39.9636139 C166.469456,38.2289473 167.102789,36.7569473 168.365456,35.543614 C169.532122,34.4262807 170.946789,33.8662807 172.610789,33.8662807 C174.492122,33.8662807 176.058789,34.595614 177.324122,36.051614 C178.280122,37.1862807 178.756122,38.4729473 178.756122,39.9129472 C178.756122,41.7756139 178.084122,43.3036138 176.744122,44.5022805 C175.529455,45.5702804 174.168122,46.1036138 172.662789,46.1036138 M172.662789,50.884947 C174.149455,50.884947 175.537455,50.6196136 176.816122,50.0876137 C178.092122,49.5516137 179.290789,48.7342804 180.408122,47.6342804 C182.558789,45.5102804 183.634789,42.8822805 183.634789,39.7436139 C183.634789,37.8169473 183.108122,36.0022807 182.042789,34.2956141 C180.982789,32.5849474 179.524122,31.2649475 177.662789,30.3249475 C176.058789,29.4996142 174.360122,29.0876142 172.566789,29.0876142 C169.472122,29.0876142 166.840122,30.2022808 164.652122,32.4342808 C162.613456,34.5569474 161.592122,37.0569473 161.592122,39.9369472 C161.592122,43.3876138 162.993456,46.2422804 165.793456,48.5102804 C166.764122,49.2982803 167.816122,49.8956137 168.946789,50.292947 C170.078789,50.6876136 171.318789,50.884947 172.662789,50.884947" id="path76" fill="#2A245B" transform="translate(172.613455, 39.986281) scale(-1, 1) rotate(-180.000000) translate(-172.613455, -39.986281) "></path>
            <path d="M203.175721,29.0874809 L198.295722,29.0874809 L198.295722,39.3554806 C198.295722,41.5581472 198.035722,43.1181472 197.517055,44.0408138 C197.227722,44.5461471 196.766388,44.9648138 196.134388,45.3034804 C195.550388,45.6448138 194.921055,45.8141471 194.238388,45.8141471 C193.561055,45.8141471 192.923722,45.6528138 192.334388,45.3328138 C191.746388,45.0061471 191.279722,44.5848138 190.938388,44.0688138 C190.405055,43.2408138 190.137055,41.7848139 190.137055,39.6968139 L190.137055,29.0874809 L185.257055,29.0874809 L185.257055,41.0794806 C185.257055,43.6208138 185.913055,45.7101471 187.222388,47.3448137 C188.035722,48.350147 189.066388,49.1394804 190.321055,49.7248137 C191.574388,50.3088137 192.881055,50.5954803 194.238388,50.5954803 C197.071722,50.5954803 199.378388,49.538147 201.158388,47.4154804 C201.889055,46.5768137 202.405055,45.6554804 202.714388,44.6608138 C203.019721,43.6661472 203.175721,42.3688139 203.175721,40.7648139 L203.175721,29.0874809 Z" id="path80" fill="#2A245B" transform="translate(194.216388, 39.841481) scale(-1, 1) rotate(-180.000000) translate(-194.216388, -39.841481) "></path>
            <path d="M221.475188,42.2442805 C221.084521,43.4082805 220.373854,44.3429471 219.335188,45.0496138 C218.300521,45.7522804 217.141854,46.1042804 215.868521,46.1042804 C214.605854,46.1042804 213.464521,45.7656138 212.444521,45.0829471 C211.425855,44.4042805 210.655188,43.4589472 210.139188,42.2442805 L221.475188,42.2442805 Z M225.917854,36.2469473 C225.431187,34.8869474 224.737854,33.7056141 223.829854,32.7029474 C222.841854,31.6216141 221.605854,30.7282808 220.117854,30.0336142 C218.707188,29.4016142 217.259188,29.0882809 215.767188,29.0882809 C212.985854,29.0882809 210.535188,30.0682808 208.415188,32.0256141 C206.053855,34.2082807 204.868521,36.8802807 204.868521,40.0336139 C204.868521,41.6189472 205.199188,43.1189472 205.852521,44.5282805 C206.508521,45.9349471 207.441855,47.1722804 208.657855,48.2416137 C210.663188,50.0042803 213.027188,50.8842803 215.745854,50.8842803 C218.769854,50.8842803 221.344521,49.8202803 223.464521,47.6842804 C224.324521,46.8096137 225.005854,45.8296138 225.516521,44.7442805 C226.024521,43.6616138 226.280521,42.6656138 226.280521,41.7629472 C226.280521,40.4962806 225.819187,39.4989473 224.899188,38.7722806 C224.475188,38.465614 223.991188,38.2282806 223.441854,38.0709473 C222.953854,37.9709473 222.103188,37.921614 220.891188,37.921614 L210.063188,37.921614 C210.469855,36.725614 211.204521,35.749614 212.275188,34.9962807 C213.341854,34.2442807 214.532521,33.8669474 215.841854,33.8669474 C217.819188,33.8669474 219.444521,34.6602807 220.724521,36.2469473 L225.917854,36.2469473 Z" id="path84" fill="#2A245B" transform="translate(215.574521, 39.986281) scale(-1, 1) rotate(-180.000000) translate(-215.574521, -39.986281) "></path>
            <path d="M245.819054,29.0874809 L240.94172,29.0874809 L240.94172,39.3554806 C240.94172,41.5581472 240.680387,43.1181472 240.163054,44.0408138 C239.871054,44.5461471 239.40972,44.9648138 238.780387,45.3034804 C238.196387,45.6448138 237.567054,45.8141471 236.887054,45.8141471 C236.207054,45.8141471 235.571054,45.6528138 234.980387,45.3328138 C234.389721,45.0061471 233.925721,44.5848138 233.581721,44.0688138 C233.051054,43.2408138 232.785721,41.7848139 232.785721,39.6968139 L232.785721,29.0874809 L227.901721,29.0874809 L227.901721,41.0794806 C227.901721,43.6208138 228.559054,45.7101471 229.868387,47.3448137 C230.680387,48.350147 231.713721,49.1394804 232.964387,49.7248137 C234.217721,50.3088137 235.527054,50.5954803 236.887054,50.5954803 C239.720387,50.5954803 242.027054,49.538147 243.80572,47.4154804 C244.532387,46.5768137 245.05372,45.6554804 245.360387,44.6608138 C245.66572,43.6661472 245.819054,42.3688139 245.819054,40.7648139 L245.819054,29.0874809 Z" id="path88" fill="#2A245B" transform="translate(236.860387, 39.841481) scale(-1, 1) rotate(-180.000000) translate(-236.860387, -39.841481) "></path>
        </g>
    </g>
</svg>